<svg width="5000" height="715" viewBox="0 0 5000 715" fill="none" xmlns="http://www.w3.org/2000/svg">
<path d="M251.591 628.878C364.301 628.878 421.051 591.44 421.84 516.562C421.84 485.822 400.164 461.389 356.814 443.261C337.898 435.378 315.828 428.285 290.606 421.98C266.173 415.673 241.345 408.974 216.123 401.88C190.9 394.787 165.679 386.905 140.457 378.235C115.235 368.776 93.1657 356.954 74.2492 342.767C31.6872 310.451 10.0121 267.889 9.22389 215.08C9.22389 158.331 30.899 111.828 74.2492 75.5715C120.752 36.1622 183.019 16.4576 261.049 16.4576C331.986 16.4576 395.829 27.0981 452.578 48.379C470.707 54.6846 480.166 67.6897 480.954 87.3943C480.954 96.8525 477.406 105.917 470.313 114.587C464.007 123.257 456.519 127.592 447.85 127.592C439.967 127.592 428.933 125.228 414.745 120.498C372.184 105.523 324.104 98.0349 270.508 98.0349C220.852 98.0349 179.867 107.493 147.551 126.409C114.447 146.114 97.8949 173.307 97.8949 207.987C97.8949 244.244 119.176 272.224 161.738 291.929C181.443 300.598 203.512 308.086 227.945 314.392C252.38 319.909 277.601 325.821 303.611 332.126C329.622 338.431 354.449 346.314 378.095 355.771C402.529 364.442 424.598 375.476 444.302 388.876C486.864 419.615 508.54 464.541 509.328 523.655C509.328 578.828 486.864 623.754 441.938 658.435C396.224 693.903 335.927 711.637 261.049 711.637C179.078 711.637 102.23 696.268 30.5049 665.529C23.4112 662.375 17.1057 657.253 11.5884 650.159C6.07114 642.277 3.3125 633.607 3.3125 624.149C3.3125 614.69 6.85933 606.021 13.953 598.138C21.0467 589.469 28.9285 585.133 37.5986 585.133C47.0568 585.133 58.4855 588.286 71.8847 594.592C86.0721 600.897 108.929 608.385 140.457 617.056C171.984 624.937 209.029 628.878 251.591 628.878ZM1086.28 25.9157C1098.1 25.9157 1107.95 30.2508 1115.84 38.9208C1123.72 46.8028 1127.66 56.261 1127.66 67.2955C1127.66 78.3301 1123.72 88.1824 1115.84 96.8525C1107.95 104.734 1098.1 108.675 1086.28 108.675H888.84V663.164C888.84 674.987 884.505 685.234 875.835 693.903C867.953 702.574 857.707 706.908 845.095 706.908C833.272 706.908 823.026 702.574 814.356 693.903C805.686 685.234 801.351 674.987 801.351 663.164V108.675H603.91C592.876 108.675 583.024 104.734 574.353 96.8525C566.472 88.9707 562.53 79.1184 562.53 67.2955C562.53 56.261 566.472 46.8028 574.353 38.9208C582.235 30.2508 592.087 25.9157 603.91 25.9157H1086.28ZM1741.26 21.1867C1753.09 21.1867 1763.33 25.5217 1772 34.1918C1781.45 42.8617 1786.19 53.5023 1786.19 66.1133V449.172C1786.19 533.507 1755.85 599.716 1695.16 647.794C1643.14 690.356 1580.47 711.637 1507.17 711.637C1433.08 711.637 1370.43 690.356 1319.19 647.794C1259.29 598.928 1229.34 532.719 1229.34 449.172V66.1133C1229.34 54.2905 1233.67 44.0441 1242.34 35.3741C1251.01 25.9157 1261.26 21.1867 1273.08 21.1867C1284.91 21.1867 1295.15 25.5217 1303.82 34.1918C1313.28 42.8617 1318 53.5023 1318 66.1133V451.537C1318 509.074 1337.71 554 1377.12 586.316C1413.38 616.267 1456.73 631.242 1507.17 631.242C1558.4 631.242 1602.15 616.267 1638.4 586.316C1677.81 553.212 1697.52 508.286 1697.52 451.537V66.1133C1697.52 54.2905 1701.85 44.0441 1710.52 35.3741C1719.19 25.9157 1729.45 21.1867 1741.26 21.1867ZM2205.9 25.9157C2313.88 25.9157 2399.8 62.1724 2463.63 134.685C2492.01 166.213 2512.9 202.075 2526.3 242.273C2540.49 282.47 2547.58 323.062 2547.58 364.047C2547.58 405.033 2540.49 445.625 2526.3 485.822C2512.9 526.02 2492.01 561.883 2463.63 593.409C2399.8 665.923 2313.88 702.179 2205.9 702.179H2010.83C1999 702.179 1988.76 697.844 1980.09 689.175C1971.42 680.504 1967.07 670.258 1967.07 658.435V70.8424C1967.07 59.0196 1971.42 48.7732 1980.09 40.1031C1988.76 30.6449 1999 25.9157 2010.83 25.9157H2205.9ZM2195.26 619.42C2275.66 619.42 2340.28 595.774 2389.15 548.483C2437.23 501.191 2461.27 439.713 2461.27 364.047C2461.27 288.382 2437.23 226.903 2389.15 179.612C2340.28 132.321 2275.66 108.675 2195.26 108.675H2055.75V619.42H2195.26ZM3115.07 43.65C3124.53 28.6744 3136.35 21.1867 3150.53 21.1867C3165.51 21.1867 3176.94 25.5217 3184.82 34.1918C3192.7 42.8617 3196.65 52.7142 3196.65 63.7487C3196.65 74.7833 3193.89 84.2415 3188.37 92.1235L2956.65 416.068V663.164C2956.65 674.987 2952.31 685.234 2943.65 693.903C2934.97 702.574 2924.72 706.908 2912.9 706.908C2901.08 706.908 2890.44 702.574 2880.98 693.903C2872.31 685.234 2867.98 674.987 2867.98 663.164V416.068L2636.25 92.1235C2631.52 84.2415 2629.15 74.7833 2629.15 63.7487C2629.15 52.7142 2632.7 42.8617 2639.8 34.1918C2647.68 25.5217 2658.71 21.1867 2672.9 21.1867C2687.87 21.1867 2700.49 28.6744 2710.73 43.65L2912.9 338.038L3115.07 43.65ZM3353.89 591.045C3369.65 591.045 3382.67 596.562 3392.91 607.597C3403.94 617.844 3409.46 630.454 3409.46 645.43V651.342C3409.46 666.317 3403.94 678.928 3392.91 689.175C3382.67 699.42 3369.65 704.544 3353.89 704.544H3344.43C3329.46 704.544 3316.84 699.42 3306.6 689.175C3296.36 678.139 3291.23 665.529 3291.23 651.342V645.43C3291.23 630.454 3296.36 617.844 3306.6 607.597C3316.84 596.562 3329.46 591.045 3344.43 591.045H3353.89ZM4128.28 229.268C4133.02 211.928 4146.81 203.258 4169.66 203.258C4180.7 203.258 4190.16 207.592 4198.04 216.263C4206.71 224.144 4211.04 232.815 4211.04 242.273C4211.04 250.943 4210.26 258.037 4208.68 263.553L4071.54 666.711C4067.59 677.746 4060.5 687.204 4050.26 695.086C4040 702.968 4028.19 706.908 4014.78 706.908C4002.17 706.908 3990.35 702.968 3979.31 695.086C3969.07 687.204 3961.98 677.351 3958.04 665.529L3855.18 345.131L3752.31 665.529C3747.59 676.563 3740.1 686.415 3729.86 695.086C3719.61 702.968 3707.79 706.908 3694.38 706.908C3681.78 706.908 3670.35 702.968 3660.1 695.086C3649.86 687.204 3642.76 677.746 3638.82 666.711L3501.67 263.553C3500.1 258.037 3499.31 250.943 3499.31 242.273C3499.31 232.815 3503.25 224.144 3511.14 216.263C3519.81 207.592 3529.65 203.258 3540.69 203.258C3563.55 203.258 3577.34 211.928 3582.07 229.268L3694.38 602.868L3807.88 238.727C3811.04 228.48 3816.95 220.204 3825.62 213.899C3834.29 206.804 3844.14 203.258 3855.18 203.258C3866.21 203.258 3876.07 206.411 3884.74 212.716C3893.4 219.021 3899.31 227.691 3902.47 238.727L4014.78 602.868L4128.28 229.268ZM4313.9 248.184C4313.9 234.785 4318.23 224.144 4326.9 216.263C4335.57 207.592 4346.21 203.258 4358.83 203.258C4371.44 203.258 4381.69 207.592 4389.57 216.263C4397.45 224.144 4401.39 234.785 4401.39 248.184V663.164C4401.39 674.987 4397.45 685.234 4389.57 693.903C4381.69 702.574 4371.44 706.908 4358.83 706.908C4346.21 706.908 4335.57 702.574 4326.9 693.903C4318.23 685.234 4313.9 674.987 4313.9 663.164V248.184ZM4410.85 57.8373C4410.85 72.0247 4406.12 83.8474 4396.66 93.3057C4387.21 102.764 4375.38 107.493 4361.19 107.493H4355.28C4341.09 107.493 4329.28 102.764 4319.81 93.3057C4311.14 83.8474 4306.81 72.0247 4306.81 57.8373V54.2905C4306.81 40.1031 4311.54 28.2804 4320.99 18.8221C4330.45 9.36389 4341.88 4.63477 4355.28 4.63477H4361.19C4375.38 4.63477 4387.21 9.36389 4396.66 18.8221C4406.12 28.2804 4410.85 40.1031 4410.85 54.2905V57.8373ZM4805.73 280.106C4748.99 280.106 4695.78 311.239 4646.13 373.506V663.164C4646.13 674.987 4641.78 685.234 4633.11 693.903C4624.45 702.574 4614.2 706.908 4602.38 706.908C4590.56 706.908 4580.3 702.574 4571.64 693.903C4562.97 685.234 4558.63 674.987 4558.63 663.164V248.184C4558.63 235.573 4562.57 224.932 4570.46 216.263C4579.13 207.592 4589.77 203.258 4602.38 203.258C4614.2 203.258 4624.45 207.592 4633.11 216.263C4641.78 224.144 4646.13 234.785 4646.13 248.184V288.382C4672.13 261.584 4694.59 242.273 4713.51 230.451C4749.77 209.169 4784.45 198.528 4817.56 198.528C4851.44 198.528 4879.03 203.652 4900.32 213.899C4921.59 223.356 4939.72 237.149 4954.7 255.277C4984.65 290.746 4999.63 334.885 4999.63 387.693V663.164C4999.63 674.987 4995.29 685.234 4986.62 693.903C4977.94 702.574 4967.7 706.908 4955.87 706.908C4944.06 706.908 4933.82 702.574 4925.14 693.903C4916.47 685.234 4912.13 674.987 4912.13 663.164V397.152C4912.13 360.895 4903.86 332.52 4887.3 312.027C4870.75 290.746 4843.56 280.106 4805.73 280.106Z" fill="#2F2F2F"/>
<path d="M2259.46 220.106C2264.52 206.241 2279.88 199.091 2293.78 204.138C2307.67 209.185 2314.84 224.516 2309.78 238.382L2208.1 517.121L2157.78 498.845L2259.46 220.106Z" fill="#175C61"/>
<path d="M2160.17 570.426L2208.1 517.122L2157.78 498.846L2160.17 570.426Z" fill="#D9BEAA"/>
<path d="M2160.16 570.426L2176.55 552.322L2159.35 546.074L2160.16 570.426Z" fill="#2F2F2F"/>
<circle cx="3348" cy="642" r="67" fill="#175C61"/>
</svg>
