<svg width="413" height="59" viewBox="0 0 413 59" fill="none" xmlns="http://www.w3.org/2000/svg">
<path d="M20.7812 51.9453C30.0911 51.9453 34.7786 48.8529 34.8438 42.668C34.8438 40.1289 33.0534 38.1107 29.4727 36.6133C27.9102 35.9622 26.0872 35.3763 24.0039 34.8555C21.9857 34.3346 19.9349 33.7812 17.8516 33.1953C15.7682 32.6094 13.6849 31.9583 11.6016 31.2422C9.51823 30.4609 7.69531 29.4844 6.13281 28.3125C2.61719 25.6432 0.826823 22.1276 0.761719 17.7656C0.761719 13.0781 2.55208 9.23698 6.13281 6.24219C9.97396 2.98698 15.1172 1.35938 21.5625 1.35938C27.4219 1.35938 32.6953 2.23828 37.3828 3.99609C38.8802 4.51693 39.6615 5.59115 39.7266 7.21875C39.7266 8 39.4336 8.7487 38.8477 9.46484C38.3268 10.181 37.7083 10.5391 36.9922 10.5391C36.3411 10.5391 35.4297 10.3438 34.2578 9.95312C30.7422 8.71615 26.7708 8.09766 22.3438 8.09766C18.2422 8.09766 14.8568 8.87891 12.1875 10.4414C9.45312 12.069 8.08594 14.3151 8.08594 17.1797C8.08594 20.1745 9.84375 22.4857 13.3594 24.1133C14.987 24.8294 16.8099 25.4479 18.8281 25.9688C20.8464 26.4245 22.9297 26.9128 25.0781 27.4336C27.2266 27.9544 29.2773 28.6055 31.2305 29.3867C33.2487 30.1029 35.0716 31.0143 36.6992 32.1211C40.2148 34.6602 42.0052 38.3711 42.0703 43.2539C42.0703 47.8112 40.2148 51.5221 36.5039 54.3867C32.7279 57.3164 27.7474 58.7812 21.5625 58.7812C14.7917 58.7812 8.44401 57.5117 2.51953 54.9727C1.93359 54.7122 1.41276 54.2891 0.957031 53.7031C0.501302 53.0521 0.273438 52.3359 0.273438 51.5547C0.273438 50.7734 0.566406 50.0573 1.15234 49.4062C1.73828 48.6901 2.38932 48.332 3.10547 48.332C3.88672 48.332 4.83073 48.5924 5.9375 49.1133C7.10938 49.6341 8.9974 50.2526 11.6016 50.9688C14.2057 51.6198 17.2656 51.9453 20.7812 51.9453ZM89.7266 2.14062C90.7031 2.14062 91.5169 2.4987 92.168 3.21484C92.819 3.86589 93.1445 4.64714 93.1445 5.55859C93.1445 6.47005 92.819 7.28385 92.168 8C91.5169 8.65104 90.7031 8.97656 89.7266 8.97656H73.418V54.7773C73.418 55.7539 73.0599 56.6003 72.3438 57.3164C71.6927 58.0326 70.8464 58.3906 69.8047 58.3906C68.8281 58.3906 67.9818 58.0326 67.2656 57.3164C66.5495 56.6003 66.1914 55.7539 66.1914 54.7773V8.97656H49.8828C48.9714 8.97656 48.1576 8.65104 47.4414 8C46.7904 7.34896 46.4648 6.53516 46.4648 5.55859C46.4648 4.64714 46.7904 3.86589 47.4414 3.21484C48.0924 2.4987 48.9062 2.14062 49.8828 2.14062H89.7266ZM143.828 1.75C144.805 1.75 145.651 2.10807 146.367 2.82422C147.148 3.54036 147.539 4.41927 147.539 5.46094V37.1016C147.539 44.0677 145.033 49.5365 140.02 53.5078C135.723 57.0234 130.547 58.7812 124.492 58.7812C118.372 58.7812 113.197 57.0234 108.965 53.5078C104.017 49.4714 101.543 44.0026 101.543 37.1016V5.46094C101.543 4.48438 101.901 3.63802 102.617 2.92188C103.333 2.14062 104.18 1.75 105.156 1.75C106.133 1.75 106.979 2.10807 107.695 2.82422C108.477 3.54036 108.867 4.41927 108.867 5.46094V37.2969C108.867 42.0495 110.495 45.7604 113.75 48.4297C116.745 50.9036 120.326 52.1406 124.492 52.1406C128.724 52.1406 132.337 50.9036 135.332 48.4297C138.587 45.6953 140.215 41.9844 140.215 37.2969V5.46094C140.215 4.48438 140.573 3.63802 141.289 2.92188C142.005 2.14062 142.852 1.75 143.828 1.75ZM182.207 2.14062C191.126 2.14062 198.223 5.13542 203.496 11.125C205.84 13.7292 207.565 16.6914 208.672 20.0117C209.844 23.332 210.43 26.6849 210.43 30.0703C210.43 33.4557 209.844 36.8086 208.672 40.1289C207.565 43.4492 205.84 46.4115 203.496 49.0156C198.223 55.0052 191.126 58 182.207 58H166.094C165.117 58 164.271 57.6419 163.555 56.9258C162.839 56.2096 162.48 55.3633 162.48 54.3867V5.85156C162.48 4.875 162.839 4.02865 163.555 3.3125C164.271 2.53125 165.117 2.14062 166.094 2.14062H182.207ZM181.328 51.1641C187.969 51.1641 193.307 49.2109 197.344 45.3047C201.315 41.3984 203.301 36.3203 203.301 30.0703C203.301 23.8203 201.315 18.7422 197.344 14.8359C193.307 10.9297 187.969 8.97656 181.328 8.97656H169.805V51.1641H181.328ZM257.305 3.60547C258.086 2.36849 259.062 1.75 260.234 1.75C261.471 1.75 262.415 2.10807 263.066 2.82422C263.717 3.54036 264.043 4.35417 264.043 5.26562C264.043 6.17708 263.815 6.95833 263.359 7.60938L244.219 34.3672V54.7773C244.219 55.7539 243.861 56.6003 243.145 57.3164C242.428 58.0326 241.582 58.3906 240.605 58.3906C239.629 58.3906 238.75 58.0326 237.969 57.3164C237.253 56.6003 236.895 55.7539 236.895 54.7773V34.3672L217.754 7.60938C217.363 6.95833 217.168 6.17708 217.168 5.26562C217.168 4.35417 217.461 3.54036 218.047 2.82422C218.698 2.10807 219.609 1.75 220.781 1.75C222.018 1.75 223.06 2.36849 223.906 3.60547L240.605 27.9219L257.305 3.60547ZM277.031 48.8203C278.333 48.8203 279.408 49.276 280.254 50.1875C281.165 51.0339 281.621 52.0755 281.621 53.3125V53.8008C281.621 55.0378 281.165 56.0794 280.254 56.9258C279.408 57.7721 278.333 58.1953 277.031 58.1953H276.25C275.013 58.1953 273.971 57.7721 273.125 56.9258C272.279 56.0143 271.855 54.9727 271.855 53.8008V53.3125C271.855 52.0755 272.279 51.0339 273.125 50.1875C273.971 49.276 275.013 48.8203 276.25 48.8203H277.031ZM340.996 18.9375C341.387 17.5052 342.526 16.7891 344.414 16.7891C345.326 16.7891 346.107 17.1471 346.758 17.8633C347.474 18.5143 347.832 19.2305 347.832 20.0117C347.832 20.7279 347.767 21.3138 347.637 21.7695L336.309 55.0703C335.983 55.9818 335.397 56.763 334.551 57.4141C333.704 58.0651 332.728 58.3906 331.621 58.3906C330.579 58.3906 329.603 58.0651 328.691 57.4141C327.845 56.763 327.259 55.9492 326.934 54.9727L318.438 28.5078L309.941 54.9727C309.551 55.8841 308.932 56.6979 308.086 57.4141C307.24 58.0651 306.263 58.3906 305.156 58.3906C304.115 58.3906 303.171 58.0651 302.324 57.4141C301.478 56.763 300.892 55.9818 300.566 55.0703L289.238 21.7695C289.108 21.3138 289.043 20.7279 289.043 20.0117C289.043 19.2305 289.368 18.5143 290.02 17.8633C290.736 17.1471 291.549 16.7891 292.461 16.7891C294.349 16.7891 295.488 17.5052 295.879 18.9375L305.156 49.7969L314.531 19.7188C314.792 18.8724 315.28 18.1888 315.996 17.668C316.712 17.082 317.526 16.7891 318.438 16.7891C319.349 16.7891 320.163 17.0495 320.879 17.5703C321.595 18.0911 322.083 18.8073 322.344 19.7188L331.621 49.7969L340.996 18.9375ZM356.328 20.5C356.328 19.3932 356.686 18.5143 357.402 17.8633C358.118 17.1471 358.997 16.7891 360.039 16.7891C361.081 16.7891 361.927 17.1471 362.578 17.8633C363.229 18.5143 363.555 19.3932 363.555 20.5V54.7773C363.555 55.7539 363.229 56.6003 362.578 57.3164C361.927 58.0326 361.081 58.3906 360.039 58.3906C358.997 58.3906 358.118 58.0326 357.402 57.3164C356.686 56.6003 356.328 55.7539 356.328 54.7773V20.5ZM364.336 4.77734C364.336 5.94922 363.945 6.92578 363.164 7.70703C362.383 8.48828 361.406 8.87891 360.234 8.87891H359.746C358.574 8.87891 357.598 8.48828 356.816 7.70703C356.1 6.92578 355.742 5.94922 355.742 4.77734V4.48438C355.742 3.3125 356.133 2.33594 356.914 1.55469C357.695 0.773438 358.639 0.382812 359.746 0.382812H360.234C361.406 0.382812 362.383 0.773438 363.164 1.55469C363.945 2.33594 364.336 3.3125 364.336 4.48438V4.77734ZM396.953 23.1367C392.266 23.1367 387.871 25.7083 383.77 30.8516V54.7773C383.77 55.7539 383.411 56.6003 382.695 57.3164C381.979 58.0326 381.133 58.3906 380.156 58.3906C379.18 58.3906 378.333 58.0326 377.617 57.3164C376.901 56.6003 376.543 55.7539 376.543 54.7773V20.5C376.543 19.4583 376.868 18.5794 377.52 17.8633C378.236 17.1471 379.115 16.7891 380.156 16.7891C381.133 16.7891 381.979 17.1471 382.695 17.8633C383.411 18.5143 383.77 19.3932 383.77 20.5V23.8203C385.918 21.6068 387.773 20.0117 389.336 19.0352C392.331 17.2773 395.195 16.3984 397.93 16.3984C400.729 16.3984 403.008 16.8216 404.766 17.668C406.523 18.4492 408.021 19.5885 409.258 21.0859C411.732 24.0156 412.969 27.6615 412.969 32.0234V54.7773C412.969 55.7539 412.611 56.6003 411.895 57.3164C411.178 58.0326 410.332 58.3906 409.355 58.3906C408.379 58.3906 407.533 58.0326 406.816 57.3164C406.1 56.6003 405.742 55.7539 405.742 54.7773V32.8047C405.742 29.8099 405.059 27.4661 403.691 25.7734C402.324 24.0156 400.078 23.1367 396.953 23.1367Z" fill="#2F2F2F"/>
</svg>
